<?xml version="1.0" encoding="UTF-8" standalone="no"?>
<!-- Created with Inkscape (http://www.inkscape.org/) -->

<svg
   xmlns:dc="http://purl.org/dc/elements/1.1/"
   xmlns:cc="http://creativecommons.org/ns#"
   xmlns:rdf="http://www.w3.org/1999/02/22-rdf-syntax-ns#"
   xmlns:svg="http://www.w3.org/2000/svg"
   xmlns="http://www.w3.org/2000/svg"
   xmlns:sodipodi="http://sodipodi.sourceforge.net/DTD/sodipodi-0.dtd"
   xmlns:inkscape="http://www.inkscape.org/namespaces/inkscape"
   width="511.49677"
   height="203.87807"
   id="svg7259"
   version="1.1"
   inkscape:version="0.48.4 r9939"
   sodipodi:docname="linha-poligonal.svg">
  <defs
     id="defs3" />
  <sodipodi:namedview
     inkscape:document-units="mm"
     id="base"
     pagecolor="#ffffff"
     bordercolor="#666666"
     borderopacity="1.0"
     inkscape:pageopacity="0.0"
     inkscape:pageshadow="2"
     inkscape:zoom="1.4"
     inkscape:cx="224.42581"
     inkscape:cy="289.8176"
     inkscape:current-layer="layer1"
     showgrid="false"
     inkscape:window-width="1855"
     inkscape:window-height="1056"
     inkscape:window-x="65"
     inkscape:window-y="24"
     inkscape:window-maximized="1"
     units="px"
     fit-margin-top="5"
     fit-margin-left="5"
     fit-margin-bottom="5"
     fit-margin-right="5" />
  <metadata
     id="metadata4">
    <rdf:RDF>
      <cc:Work
         rdf:about="">
        <dc:format>image/svg+xml</dc:format>
        <dc:type
           rdf:resource="http://purl.org/dc/dcmitype/StillImage" />
        <dc:title></dc:title>
      </cc:Work>
    </rdf:RDF>
  </metadata>
  <g
     inkscape:label="Layer 1"
     inkscape:groupmode="layer"
     id="layer1"
     transform="translate(-123.06754,-345.18303)">
    <path
       style="fill:#000000"
       d="m 339.14784,533.43036 c 0,-0.89831 2.93168,-3.1385 6.51484,-4.9782 3.58316,-1.8397 16.88847,-9.00158 29.56735,-15.9153 12.67888,-6.91371 32.28472,-17.5278 43.56853,-23.58687 11.2838,-6.05906 20.52986,-11.69803 20.5468,-12.53104 0.0169,-0.83302 -21.1675,-12.07805 -47.07652,-24.98897 -25.90901,-12.91092 -47.1073,-24.61963 -47.1073,-26.01936 0,-1.39973 5.63784,-5.36263 12.52854,-8.80644 6.89069,-3.44382 27.49286,-14.28146 45.78259,-24.08365 18.28972,-9.8022 34.30119,-17.82217 35.58105,-17.82217 5.40142,0 1.47991,3.61193 -11.20383,10.31935 -13.32262,7.04529 -57.0751,29.84069 -70.53167,36.74759 l -6.8867,3.53476 48.8947,24.54962 c 26.89208,13.5023 49.1602,25.34614 49.4847,26.31966 0.3245,0.97352 -3.6952,4.00464 -8.93265,6.73584 -5.23747,2.73119 -18.54322,10.01641 -29.56833,16.18936 -31.23597,17.48902 -66.70927,35.96912 -69.04416,35.96912 -1.16487,0 -2.11794,-0.73499 -2.11794,-1.6333 z"
       id="path7312"
       inkscape:connector-curvature="0" />
    <path
       style="fill:#000000"
       d="m 218.17443,528.54882 c 1.26894,-2.18531 26.39207,-35.01634 49.19147,-64.28364 l 7.52458,-9.6592 -10.42497,-13.77547 c -5.73374,-7.5765 -16.69442,-22.39853 -24.35708,-32.93783 -7.66266,-10.53929 -14.03913,-19.16236 -14.16995,-19.16236 -0.34595,0 -42.55396,54.05024 -58.70147,75.17123 -12.35393,16.15899 -17.43392,20.6045 -17.43392,15.25644 0,-0.98032 3.3064,-5.73873 7.34755,-10.57425 6.96732,-8.33689 17.27772,-21.69787 34.34294,-44.50412 4.18707,-5.59567 8.30585,-10.65159 9.15284,-11.23537 0.847,-0.58378 4.38315,-5.12067 7.85813,-10.08197 3.47497,-4.9613 8.88991,-12.05684 12.0332,-15.76786 l 5.71506,-6.74732 11.88929,16.31836 c 6.53912,8.9751 18.40414,25.09119 26.36672,35.81353 7.96258,10.72234 14.50247,20.86478 14.5331,22.53876 0.0306,1.67398 -3.39465,7.21899 -7.61174,12.32225 -4.21709,5.10327 -16.96642,21.54923 -28.33184,36.54659 -11.36542,14.99736 -21.95016,27.26793 -23.52164,27.26793 -1.72541,0 -2.28089,-0.99258 -1.40227,-2.5057 z"
       id="path7310"
       inkscape:connector-curvature="0" />
    <path
       style="fill:#000000"
       d="m 547.62273,486.95407 0,-30.0685 -36.0822,0 -36.08219,0 0,-42.97987 c 0,-26.49094 0.76903,-43.45516 2.00457,-44.21876 1.31211,-0.81093 2.00456,13.32754 2.00456,40.92905 l 0,42.16794 35.58105,0.5474 35.58105,0.54739 0.55473,29.56736 0.55474,29.56735 28.89432,0 c 17.10057,0 29.39999,0.8182 30.1332,2.00456 0.80628,1.3046 -10.00202,2.00457 -30.95247,2.00457 l -32.19136,0 0,-30.06849 z"
       id="path7304"
       inkscape:connector-curvature="0" />
    <text
       xml:space="preserve"
       style="font-size:28px;font-style:normal;font-variant:normal;font-weight:normal;font-stretch:normal;text-align:center;line-height:125%;letter-spacing:0px;word-spacing:0px;text-anchor:middle;fill:#000000;fill-opacity:1;stroke:none;font-family:FreeSans;-inkscape-font-specification:FreeSans"
       x="136.97176"
       y="489.52158"
       id="text7320"
       sodipodi:linespacing="125%"><tspan
         sodipodi:role="line"
         id="tspan7322"
         x="136.97176"
         y="489.52158">A</tspan></text>
    <text
       xml:space="preserve"
       style="font-size:28px;font-style:normal;font-variant:normal;font-weight:normal;font-stretch:normal;text-align:center;line-height:125%;letter-spacing:0px;word-spacing:0px;text-anchor:middle;fill:#000000;fill-opacity:1;stroke:none;font-family:FreeSans;-inkscape-font-specification:FreeSans"
       x="223.82387"
       y="376.07123"
       id="text7324"
       sodipodi:linespacing="125%"><tspan
         sodipodi:role="line"
         id="tspan7326"
         x="223.82387"
         y="376.07123">B</tspan></text>
    <text
       xml:space="preserve"
       style="font-size:28px;font-style:normal;font-variant:normal;font-weight:normal;font-stretch:normal;text-align:center;line-height:125%;letter-spacing:0px;word-spacing:0px;text-anchor:middle;fill:#000000;fill-opacity:1;stroke:none;font-family:FreeSans;-inkscape-font-specification:FreeSans"
       x="293.79919"
       y="464.94363"
       id="text7328"
       sodipodi:linespacing="125%"><tspan
         sodipodi:role="line"
         id="tspan7330"
         x="293.79919"
         y="464.94363">C</tspan></text>
    <text
       xml:space="preserve"
       style="font-size:28px;font-style:normal;font-variant:normal;font-weight:normal;font-stretch:normal;text-align:center;line-height:125%;letter-spacing:0px;word-spacing:0px;text-anchor:middle;fill:#000000;fill-opacity:1;stroke:none;font-family:FreeSans;-inkscape-font-specification:FreeSans"
       x="205.02835"
       y="544.0611"
       id="text7332"
       sodipodi:linespacing="125%"><tspan
         sodipodi:role="line"
         id="tspan7334"
         x="205.02835"
         y="544.0611">D</tspan></text>
    <text
       xml:space="preserve"
       style="font-size:28px;font-style:normal;font-variant:normal;font-weight:normal;font-stretch:normal;text-align:center;line-height:125%;letter-spacing:0px;word-spacing:0px;text-anchor:middle;fill:#000000;fill-opacity:1;stroke:none;font-family:FreeSans;-inkscape-font-specification:FreeSans"
       x="621.53967"
       y="519.98206"
       id="text7336"
       sodipodi:linespacing="125%"><tspan
         sodipodi:role="line"
         id="tspan7338"
         x="621.53967"
         y="519.98206">E</tspan></text>
    <text
       xml:space="preserve"
       style="font-size:28px;font-style:normal;font-variant:normal;font-weight:normal;font-stretch:normal;text-align:center;line-height:125%;letter-spacing:0px;word-spacing:0px;text-anchor:middle;fill:#000000;fill-opacity:1;stroke:none;font-family:FreeSans;-inkscape-font-specification:FreeSans"
       x="436.63528"
       y="370.59503"
       id="text7320-4"
       sodipodi:linespacing="125%"><tspan
         sodipodi:role="line"
         id="tspan7322-4"
         x="436.63528"
         y="370.59503">A</tspan></text>
    <text
       xml:space="preserve"
       style="font-size:28px;font-style:normal;font-variant:normal;font-weight:normal;font-stretch:normal;text-align:center;line-height:125%;letter-spacing:0px;word-spacing:0px;text-anchor:middle;fill:#000000;fill-opacity:1;stroke:none;font-family:FreeSans;-inkscape-font-specification:FreeSans"
       x="339.91595"
       y="420.00183"
       id="text7324-3"
       sodipodi:linespacing="125%"><tspan
         sodipodi:role="line"
         id="tspan7326-8"
         x="339.91595"
         y="420.00183">B</tspan></text>
    <text
       xml:space="preserve"
       style="font-size:28px;font-style:normal;font-variant:normal;font-weight:normal;font-stretch:normal;text-align:center;line-height:125%;letter-spacing:0px;word-spacing:0px;text-anchor:middle;fill:#000000;fill-opacity:1;stroke:none;font-family:FreeSans;-inkscape-font-specification:FreeSans"
       x="459.89133"
       y="488.87424"
       id="text7328-3"
       sodipodi:linespacing="125%"><tspan
         sodipodi:role="line"
         id="tspan7330-5"
         x="459.89133"
         y="488.87424">C</tspan></text>
    <text
       xml:space="preserve"
       style="font-size:28px;font-style:normal;font-variant:normal;font-weight:normal;font-stretch:normal;text-align:center;line-height:125%;letter-spacing:0px;word-spacing:0px;text-anchor:middle;fill:#000000;fill-opacity:1;stroke:none;font-family:FreeSans;-inkscape-font-specification:FreeSans"
       x="331.12045"
       y="535.13452"
       id="text7332-1"
       sodipodi:linespacing="125%"><tspan
         sodipodi:role="line"
         id="tspan7334-7"
         x="331.12045"
         y="535.13452">D</tspan></text>
    <text
       xml:space="preserve"
       style="font-size:28px;font-style:normal;font-variant:normal;font-weight:normal;font-stretch:normal;text-align:center;line-height:125%;letter-spacing:0px;word-spacing:0px;text-anchor:middle;fill:#000000;fill-opacity:1;stroke:none;font-family:FreeSans;-inkscape-font-specification:FreeSans"
       x="490.20673"
       y="377.73788"
       id="text7320-0"
       sodipodi:linespacing="125%"><tspan
         sodipodi:role="line"
         id="tspan7322-6"
         x="490.20673"
         y="377.73788">A</tspan></text>
    <text
       xml:space="preserve"
       style="font-size:28px;font-style:normal;font-variant:normal;font-weight:normal;font-stretch:normal;text-align:center;line-height:125%;letter-spacing:0px;word-spacing:0px;text-anchor:middle;fill:#000000;fill-opacity:1;stroke:none;font-family:FreeSans;-inkscape-font-specification:FreeSans"
       x="464.91599"
       y="450.0018"
       id="text7324-4"
       sodipodi:linespacing="125%"><tspan
         sodipodi:role="line"
         id="tspan7326-0"
         x="464.91599"
         y="450.0018">B</tspan></text>
    <text
       xml:space="preserve"
       style="font-size:28px;font-style:normal;font-variant:normal;font-weight:normal;font-stretch:normal;text-align:center;line-height:125%;letter-spacing:0px;word-spacing:0px;text-anchor:middle;fill:#000000;fill-opacity:1;stroke:none;font-family:FreeSans;-inkscape-font-specification:FreeSans"
       x="562.03418"
       y="457.44565"
       id="text7328-6"
       sodipodi:linespacing="125%"><tspan
         sodipodi:role="line"
         id="tspan7330-58"
         x="562.03418"
         y="457.44565">C</tspan></text>
    <text
       xml:space="preserve"
       style="font-size:28px;font-style:normal;font-variant:normal;font-weight:normal;font-stretch:normal;text-align:center;line-height:125%;letter-spacing:0px;word-spacing:0px;text-anchor:middle;fill:#000000;fill-opacity:1;stroke:none;font-family:FreeSans;-inkscape-font-specification:FreeSans"
       x="536.12042"
       y="522.9917"
       id="text7332-4"
       sodipodi:linespacing="125%"><tspan
         sodipodi:role="line"
         id="tspan7334-1"
         x="536.12042"
         y="522.9917">D</tspan></text>
  </g>
</svg>
